HIERARCHY
ROOT Hips
{
	OFFSET 54.756500 -58.543316 96.748192
	CHANNELS 6 Xposition Yposition Zposition Xrotation Yrotation Zrotation
	JOINT spine
	{
		OFFSET 0.000000 -0.467659 8.132500
		CHANNELS 3 Xrotation Yrotation Zrotation
		JOINT spine1
		{
			OFFSET 0.000000 -0.000004 10.349800
			CHANNELS 3 Xrotation Yrotation Zrotation
			JOINT spine2
			{
				OFFSET 0.000000 0.000000 9.916992
				CHANNELS 3 Xrotation Yrotation Zrotation
				JOINT Neck
				{
					OFFSET 0.000000 -1.213905 25.460991
					CHANNELS 3 Xrotation Yrotation Zrotation
					JOINT Head
					{
						OFFSET 0.000000 -0.000004 7.692444
						CHANNELS 3 Xrotation Yrotation Zrotation
						End Site
						{
							OFFSET 0.000000 6.140625 18.619995
						}
					}
				}
				JOINT RightShoulder
				{
					OFFSET -4.175751 0.581440 10.709587
					CHANNELS 3 Xrotation Yrotation Zrotation
					JOINT RightArm
					{
						OFFSET 0.000000 0.000000 14.046600
						CHANNELS 3 Xrotation Yrotation Zrotation
						JOINT RightArmRoll
						{
							OFFSET 0.000000 -0.000004 7.090988
							CHANNELS 3 Xrotation Yrotation Zrotation
							JOINT RightForeArm
							{
								OFFSET 0.000000 -0.000004 20.653503
								CHANNELS 3 Xrotation Yrotation Zrotation
								JOINT RightForeArmRoll
								{
									OFFSET 0.000000 0.000000 7.957184
									CHANNELS 3 Xrotation Yrotation Zrotation
									JOINT RightHand
									{
										OFFSET 0.000000 -0.000004 15.968307
										CHANNELS 3 Xrotation Yrotation Zrotation
										End Site
										{
											OFFSET 0.000000 0.000000 0.100006
										}
									}
								}
							}
						}
					}
				}
				JOINT LeftShoulder
				{
					OFFSET 4.175751 0.581440 10.709587
					CHANNELS 3 Xrotation Yrotation Zrotation
					JOINT LeftArm
					{
						OFFSET 0.000000 0.000000 14.046600
						CHANNELS 3 Xrotation Yrotation Zrotation
						JOINT LeftArmRoll
						{
							OFFSET 0.000000 -0.000004 7.090973
							CHANNELS 3 Xrotation Yrotation Zrotation
							JOINT LeftForeArm
							{
								OFFSET 0.000000 -0.000004 20.653503
								CHANNELS 3 Xrotation Yrotation Zrotation
								JOINT LeftForeArmRoll
								{
									OFFSET 0.000000 0.000000 7.957184
									CHANNELS 3 Xrotation Yrotation Zrotation
									JOINT LeftHand
									{
										OFFSET 0.000000 -0.000004 15.968292
										CHANNELS 3 Xrotation Yrotation Zrotation
										End Site
										{
											OFFSET 0.000000 0.000000 0.100006
										}
									}
								}
							}
						}
					}
				}
			}
		}
	}
	JOINT RightUpLeg
	{
		OFFSET -7.208340 1.108841 -1.321823
		CHANNELS 3 Xrotation Yrotation Zrotation
		JOINT RightUpLegRoll
		{
			OFFSET 0.000000 -0.000004 18.723801
			CHANNELS 3 Xrotation Yrotation Zrotation
			JOINT RightLeg
			{
				OFFSET 0.000000 0.000004 -23.186600
				CHANNELS 3 Xrotation Yrotation Zrotation
				JOINT RightLegRoll
				{
					OFFSET 0.000000 -0.000004 23.262398
					CHANNELS 3 Xrotation Yrotation Zrotation
					JOINT RightFoot
					{
						OFFSET 0.000000 -0.000004 19.362091
						CHANNELS 3 Xrotation Yrotation Zrotation
						JOINT RightToeBase
						{
							OFFSET 0.000000 0.000000 16.185699
							CHANNELS 3 Xrotation Yrotation Zrotation
							End Site
							{
								OFFSET 0.006859 0.903519 7.838623
							}
						}
					}
				}
			}
		}
	}
	JOINT LeftUpLeg
	{
		OFFSET 7.208340 1.108841 -1.321823
		CHANNELS 3 Xrotation Yrotation Zrotation
		JOINT LeftUpLegRoll
		{
			OFFSET 0.000000 -0.000004 18.723900
			CHANNELS 3 Xrotation Yrotation Zrotation
			JOINT LeftLeg
			{
				OFFSET 0.000000 -0.000004 23.186493
				CHANNELS 3 Xrotation Yrotation Zrotation
				JOINT LeftLegRoll
				{
					OFFSET 0.000000 -0.000004 23.477493
					CHANNELS 3 Xrotation Yrotation Zrotation
					JOINT LeftFoot
					{
						OFFSET 0.000000 -0.000004 19.147003
						CHANNELS 3 Xrotation Yrotation Zrotation
						JOINT LeftToeBase
						{
							OFFSET 0.000000 0.000000 16.185699
							CHANNELS 3 Xrotation Yrotation Zrotation
							End Site
							{
								OFFSET -0.030746 0.903519 7.838623
							}
						}
					}
				}
			}
		}
	}
}
MOTION
Frames: 6
Frame Time: 0.041667
54.661701 -19.978313 61.920795 32.094646 -0.286724 -0.363286 2.913362 -0.953591 -0.073661 9.830120 -1.910544 -0.078218 11.475574 -1.911352 -0.055317 -22.910698 9.558804 -2.218562 1.345100 -4.965317 -5.196926 -16.644114 -38.421549 -19.329664 -35.024206 -122.667657 -85.349682 -0.000004 0.000003 -0.000003 97.813814 4.974844 -12.069968 -0.000004 0.000007 -3.012208 -5.000072 -7.998753 0.000122 -16.804101 53.063511 19.776920 -43.437063 119.155587 87.399579 -0.000002 -0.000004 0.000007 88.266077 -7.853693 7.504062 0.000015 -0.000005 3.007320 -5.000366 7.998769 -0.000214 -110.546318 -166.985981 2.521099 179.999991 0.000005 -0.629001 99.448360 -4.689633 -6.960237 0.000001 -0.000006 1.660740 67.971666 8.525838 -1.924304 25.456950 -7.355616 0.000008 -110.535041 169.777958 -2.133863 -0.000003 -0.000004 -0.736389 -80.160029 1.901347 4.896966 -0.000003 0.000002 -1.965860 66.061515 -7.598628 -0.621534 25.457560 7.355614 -0.000913 
54.657501 -20.053303 62.006496 32.248567 -0.290396 -0.344125 2.908930 -0.950513 -0.072977 9.821252 -1.904939 -0.076404 11.466734 -1.905726 -0.053569 -23.103158 9.507993 -2.229187 1.404918 -4.916030 -5.210592 -16.684783 -38.398183 -19.383933 -35.145022 -122.673093 -85.550004 -0.000005 0.000003 -0.000002 97.752069 4.962628 -12.022447 -0.000002 0.000005 -3.012209 -5.000069 -7.998753 0.000122 -16.772325 52.996592 19.736976 -43.479567 119.189847 87.535397 0.000001 -0.000008 0.000005 88.211634 -7.856419 7.477385 0.000016 -0.000005 3.007318 -5.000362 7.998775 -0.000209 -110.545464 -166.987334 2.525643 179.999991 0.000006 -0.628003 99.546722 -4.737989 -6.983133 0.000001 -0.000006 1.657989 67.954283 8.539967 -1.956792 25.456953 -7.355614 0.000008 -110.540417 169.783531 -2.140581 -0.000004 -0.000003 -0.734566 -80.096781 1.942708 4.927134 -0.000003 0.000002 -1.961180 66.141783 -7.601218 -0.607217 25.457558 7.355614 -0.000912 
54.612598 -20.022301 62.135292 32.399880 -0.293736 -0.325089 2.904545 -0.947464 -0.072289 9.812485 -1.899411 -0.074563 11.457991 -1.900180 -0.051795 -23.296802 9.455802 -2.240257 1.467840 -4.865370 -5.224160 -16.725351 -38.378283 -19.438143 -35.273057 -122.679896 -85.754616 -0.000005 0.000001 -0.000003 97.686192 4.948186 -11.972600 -0.000003 0.000002 -3.012213 -5.000068 -7.998752 0.000122 -16.740053 52.931586 19.696444 -43.527498 119.226348 87.672035 -0.000001 -0.000009 0.000005 88.152737 -7.856431 7.447541 0.000015 -0.000007 3.007321 -5.000361 7.998775 -0.000211 -110.540144 -166.988973 2.530671 179.999991 0.000006 -0.628003 99.646579 -4.786237 -7.003907 0.000001 -0.000006 1.655170 67.936845 8.553921 -1.988706 25.456957 -7.355615 0.000008 -110.541578 169.787807 -2.149057 -0.000003 -0.000003 -0.732808 -80.031833 1.985416 4.958199 -0.000002 0.000002 -1.956500 66.222311 -7.604540 -0.590932 25.457561 7.355615 -0.000913 
54.614601 -20.110615 62.220997 32.548587 -0.296694 -0.306394 2.900195 -0.944464 -0.071599 9.803782 -1.893993 -0.072723 11.449247 -1.894731 -0.050023 -23.490964 9.402843 -2.251634 1.533002 -4.814034 -5.237578 -16.764624 -38.361232 -19.490773 -35.405358 -122.689336 -85.959044 -0.000003 0.000003 -0.000002 97.615889 4.931483 -11.917441 -0.000003 0.000005 -3.012209 -5.000067 -7.998753 0.000121 -16.707872 52.869195 19.656046 -43.581757 119.264242 87.810196 0.000001 -0.000006 0.000007 88.089421 -7.853917 7.414429 0.000015 -0.000004 3.007325 -5.000358 7.998774 -0.000212 -110.530650 -166.991035 2.534468 179.999991 0.000005 -0.627006 99.747352 -4.834261 -7.026547 0.000001 -0.000006 1.652209 67.920337 8.567204 -2.019118 25.456957 -7.355614 0.000009 -110.538361 169.790935 -2.158120 -0.000002 -0.000005 -0.731070 -79.965027 2.029131 4.989645 -0.000003 0.000002 -1.951770 66.302600 -7.608375 -0.573370 25.457560 7.355614 -0.000914 
54.625999 -20.210915 62.312492 32.694695 -0.299223 -0.288260 2.895841 -0.941527 -0.070911 9.795086 -1.888681 -0.070914 11.440611 -1.889397 -0.048276 -23.684775 9.349908 -2.263104 1.599524 -4.762711 -5.250818 -16.801582 -38.346499 -19.540427 -35.539172 -122.702777 -86.159011 -0.000004 0.000001 0.000001 97.540914 4.912053 -11.858913 -0.000002 0.000004 -3.012211 -5.000068 -7.998753 0.000122 -16.676303 52.810063 19.616443 -43.642313 119.303543 87.949675 -0.000001 -0.000007 0.000009 88.021816 -7.848815 7.378383 0.000017 -0.000006 3.007318 -5.000362 7.998766 -0.000215 -110.517112 -166.993754 2.537462 179.999991 0.000004 -0.625995 99.848739 -4.881265 -7.047194 0.000001 -0.000007 1.649030 67.905461 8.579351 -2.046977 25.456953 -7.355613 0.000009 -110.531237 169.792957 -2.166149 -0.000003 -0.000004 -0.729307 -79.896117 2.073598 5.021291 -0.000002 0.000002 -1.946960 66.382219 -7.612325 -0.555474 25.457558 7.355613 -0.000913 
54.616901 -20.279510 62.408493 32.838009 -0.301277 -0.270910 2.891490 -0.938674 -0.070227 9.786360 -1.883508 -0.069161 11.431869 -1.884202 -0.046587 -23.877288 9.297715 -2.274518 1.666563 -4.712125 -5.263826 -16.835441 -38.333487 -19.585818 -35.674194 -122.719047 -86.353201 -0.000003 0.000003 -0.000002 97.460796 4.889757 -11.794991 -0.000004 0.000006 -3.012209 -5.000068 -7.998755 0.000120 -16.645837 52.754817 19.578245 -43.708665 119.344059 88.089401 0.000001 -0.000006 0.000007 87.949983 -7.841216 7.339292 0.000015 -0.000006 3.007322 -5.000362 7.998773 -0.000210 -110.499681 -166.997347 2.539068 179.999991 0.000004 -0.625996 99.950215 -4.926952 -7.065843 0.000001 -0.000006 1.645540 67.892907 8.589938 -2.071224 25.456955 -7.355612 0.000007 -110.520172 169.794036 -2.173872 -0.000003 -0.000004 -0.727474 -79.825015 2.118481 5.052736 -0.000003 0.000002 -1.942030 66.460951 -7.616025 -0.537882 25.457554 7.355613 -0.000913 
